<svg xmlns="http://www.w3.org/2000/svg" version="1.1" xmlns:xlink="http://www.w3.org/1999/xlink" xmlns:svgjs="http://svgjs.dev/svgjs" width="1440" height="560" preserveAspectRatio="none" viewBox="0 0 1440 560"><g mask="url(&quot;#SvgjsMask1040&quot;)" fill="none"><rect width="1440" height="560" x="0" y="0" fill="#1e3266"></rect><path d="M1464 560L0 560 L0 467.12Q39.47 386.59, 120 426.05Q186.39 372.44, 240 438.83Q286.67 413.5, 312 460.17Q355.47 383.64, 432 427.11Q473.04 396.15, 504 437.2Q575.01 388.21, 624 459.22Q666.63 429.86, 696 472.49Q739.19 395.69, 816 438.88Q859.61 410.49, 888 454.1Q930.71 424.81, 960 467.53Q1004.39 391.92, 1080 436.31Q1124.24 408.55, 1152 452.79Q1174.74 403.53, 1224 426.27Q1289.12 371.38, 1344 436.5Q1415.74 388.24, 1464 459.98z" fill="#182f5d"></path><path d="M1536 560L0 560 L0 483.64Q40.17 451.81, 72 491.97Q121.74 421.71, 192 471.45Q244.78 452.23, 264 505Q315.46 436.46, 384 487.92Q410.11 442.03, 456 468.14Q531.35 423.49, 576 498.83Q606.58 457.4, 648 487.98Q671.32 439.31, 720 462.63Q785.33 407.95, 840 473.28Q885.76 447.04, 912 492.8Q957.08 417.88, 1032 462.96Q1076.71 435.67, 1104 480.38Q1170.29 426.67, 1224 492.96Q1247.37 444.33, 1296 467.7Q1374.29 425.99, 1416 504.28Q1465.34 433.62, 1536 482.96z" fill="#25467d"></path><path d="M1512 560L0 560 L0 502.23Q71.26 453.49, 120 524.75Q161.8 494.55, 192 536.35Q232.31 456.66, 312 496.98Q357.26 470.25, 384 515.51Q427.88 487.38, 456 531.26Q499.78 455.04, 576 498.82Q617.97 468.79, 648 510.76Q718.09 460.85, 768 530.93Q787.02 477.95, 840 496.98Q882.08 467.06, 912 509.14Q955.72 480.86, 984 524.58Q1029.38 449.96, 1104 495.33Q1161.85 481.18, 1176 539.03Q1229.24 472.27, 1296 525.52Q1318.62 476.13, 1368 498.75Q1410.04 468.79, 1440 510.84Q1482.35 481.18, 1512 523.53z" fill="#356cb1"></path><path d="M1512 560L0 560 L0 543.9Q50.67 522.57, 72 573.23Q123.18 504.41, 192 555.6Q222.08 513.68, 264 543.77Q317.82 477.59, 384 531.41Q440.53 515.94, 456 572.47Q502.83 499.3, 576 546.12Q630.47 480.59, 696 535.05Q746.95 514, 768 564.95Q795.26 520.21, 840 547.47Q865.65 501.12, 912 526.77Q993.63 488.39, 1032 570.02Q1075.97 493.99, 1152 537.96Q1220.23 486.19, 1272 554.42Q1318.31 480.73, 1392 527.04Q1474.9 489.94, 1512 572.85z" fill="white"></path></g><defs><mask id="SvgjsMask1040"><rect width="1440" height="560" fill="#ffffff"></rect></mask></defs></svg>