<svg xmlns="http://www.w3.org/2000/svg" version="1.1" xmlns:xlink="http://www.w3.org/1999/xlink" xmlns:svgjs="http://svgjs.dev/svgjs" width="1440" height="560" preserveAspectRatio="none" viewBox="0 0 1440 560"><g mask="url(&quot;#SvgjsMask4285&quot;)" fill="none"><rect width="1440" height="560" x="0" y="0" fill="url(&quot;#SvgjsLinearGradient4286&quot;)"></rect><path d="M0 0L614.36 0L0 169.72z" fill="rgba(255, 255, 255, .1)"></path><path d="M0 169.72L614.36 0L792.38 0L0 299.43z" fill="rgba(255, 255, 255, .075)"></path><path d="M0 299.43L792.38 0L1132.03 0L0 408.61z" fill="rgba(255, 255, 255, .05)"></path><path d="M0 408.61L1132.03 0L1246.43 0L0 474.67z" fill="rgba(255, 255, 255, .025)"></path><path d="M1440 560L778.18 560L1440 284.53z" fill="rgba(0, 0, 0, .1)"></path><path d="M1440 284.53L778.18 560L351.74999999999994 560L1440 234.03999999999996z" fill="rgba(0, 0, 0, .075)"></path><path d="M1440 234.03999999999996L351.75 560L297.51 560L1440 187.65999999999997z" fill="rgba(0, 0, 0, .05)"></path><path d="M1440 187.65999999999997L297.51 560L189.99 560L1440 110.89999999999996z" fill="rgba(0, 0, 0, .025)"></path></g><defs><mask id="SvgjsMask4285"><rect width="1440" height="560" fill="#ffffff"></rect></mask><linearGradient x1="100%" y1="50%" x2="0%" y2="50%" gradientUnits="userSpaceOnUse" id="SvgjsLinearGradient4286"><stop stop-color="rgba(47, 115, 201, 1)" offset="0.61"></stop><stop stop-color="rgba(31, 110, 191, 1)" offset="0.73"></stop></linearGradient></defs></svg>